<?xml version="1.0" encoding="UTF-8" standalone="no"?><!DOCTYPE svg PUBLIC "-//W3C//DTD SVG 1.1//EN" "http://www.w3.org/Graphics/SVG/1.1/DTD/svg11.dtd"><svg width="100%" height="100%" viewBox="0 0 772 108" version="1.1" xmlns="http://www.w3.org/2000/svg" xmlns:xlink="http://www.w3.org/1999/xlink" xml:space="preserve" xmlns:serif="http://www.serif.com/" style="fill-rule:evenodd;clip-rule:evenodd;stroke-linejoin:round;stroke-miterlimit:2;"><path d="M57.245,88.824c-0.808,-3.333 -1.347,-7.357 -1.616,-12.07c-0.269,-4.714 -0.572,-14.647 -0.909,-29.798c-3.165,6.7 -6.465,12.761 -9.899,18.182c-5.151,8.215 -8.636,14.562 -10.454,19.04c0.134,0.538 0.202,1.027 0.202,1.464c-0,2.021 -0.909,3.797 -2.727,5.329c-1.819,1.531 -4.007,2.297 -6.566,2.297c-2.492,0 -4.444,-0.631 -5.858,-1.893c-1.415,-1.263 -2.021,-3.106 -1.819,-5.531l-0.606,-6.01l-1.313,-18.131c-0.336,-4.713 -0.968,-9.949 -1.894,-15.706c-0.926,-5.758 -2.348,-13.687 -4.267,-23.788c-0.135,-0.572 -0.202,-1.077 -0.202,-1.515c-0,-1.919 0.816,-3.628 2.449,-5.126c1.633,-1.498 3.611,-2.247 5.934,-2.247c1.482,-0 2.787,0.395 3.914,1.186c1.128,0.792 2.08,2.357 2.854,4.697c0.774,2.34 1.675,7.803 2.702,16.389c1.027,8.586 1.911,18.232 2.651,28.939c3.872,-6.835 7.862,-14.596 11.97,-23.283c5.05,-11.043 9.116,-18.215 12.197,-21.514c3.08,-3.3 5.648,-4.95 7.701,-4.95c1.987,0 3.67,0.775 5.051,2.323c1.38,1.549 2.071,5.674 2.071,12.374c-0,1.38 -0.102,4.747 -0.304,10.101c-0.235,6.363 0.202,16.919 1.314,31.666c3.097,-5.152 7.104,-12.222 12.02,-21.212l8.181,-14.848c0.472,-0.909 1.818,-4.024 4.041,-9.343c3.366,-8.35 7.39,-12.525 12.07,-12.525c1.919,-0 3.434,0.521 4.545,1.565c1.111,1.044 1.667,2.391 1.667,4.04c0,0.708 -0.16,1.49 -0.48,2.349c-0.32,0.858 -1.296,2.761 -2.929,5.707c-1.633,2.946 -3.123,5.842 -4.47,8.687c-1.346,2.845 -3.097,6.153 -5.252,9.924c-2.155,3.771 -4.175,7.205 -6.061,10.302l-10.555,17.677c-2.121,3.569 -3.821,6.549 -5.101,8.939c-3.03,5.657 -5.404,9.192 -7.121,10.606c-1.717,1.414 -3.72,2.121 -6.01,2.121c-2.087,0 -3.855,-0.606 -5.303,-1.818c-1.448,-1.212 -2.054,-2.744 -1.818,-4.596Z" style="fill:#6d4c41;fill-rule:nonzero;"/><path d="M157.092,68.774c-2.559,0.337 -6.701,0.707 -12.424,1.111c-5.657,0.337 -9.798,0.758 -12.424,1.263c-6.095,10.1 -9.941,16.026 -11.541,17.777c-1.599,1.751 -3.577,2.626 -5.934,2.626c-1.818,0 -3.325,-0.555 -4.52,-1.666c-1.195,-1.111 -1.793,-2.458 -1.793,-4.041c0,-1.784 3.451,-7.962 10.354,-18.535c-0.202,-0.505 -0.303,-0.959 -0.303,-1.363c-0,-2.492 1.868,-4.276 5.605,-5.354c22.626,-29.932 35.522,-44.898 38.687,-44.898c3.602,0 5.74,2.239 6.414,6.717c-0,6.263 0.42,15.96 1.262,29.091c0.842,13.131 1.431,20.437 1.768,21.918c0.337,1.482 0.774,3.216 1.313,5.202c0.572,2.323 0.859,4.158 0.859,5.505c-0,2.054 -0.867,3.872 -2.601,5.455c-1.734,1.582 -3.679,2.373 -5.834,2.373c-4.208,0 -7.171,-7.727 -8.888,-23.181Zm-1.768,-28.636c-4.478,6.128 -9.057,12.256 -13.737,18.384c1.717,-0.337 4.158,-0.606 7.323,-0.808c3.704,-0.202 6.044,-0.371 7.02,-0.505c0,-4.445 -0.202,-10.135 -0.606,-17.071Z" style="fill:#6d4c41;fill-rule:nonzero;"/><path d="M207.949,26.25c-1.077,7.508 -1.969,13.097 -2.676,16.767c5.185,-1.313 9.528,-1.97 13.03,-1.97c7.71,0 13.265,0.337 16.666,1.01c3.401,0.674 5.101,2.408 5.101,5.202c-0,2.391 -0.85,4.403 -2.551,6.035c-1.7,1.633 -3.577,2.45 -5.631,2.45c-2.525,-0 -5.185,-0.135 -7.979,-0.404c-2.694,-0.269 -5.287,-0.404 -7.778,-0.404c-2.424,-0 -6.801,0.757 -13.131,2.273l-4.95,31.615c-0.303,1.886 -1.287,3.51 -2.954,4.874c-1.667,1.363 -3.577,2.045 -5.732,2.045c-1.919,0 -3.392,-0.648 -4.419,-1.944c-1.027,-1.297 -1.389,-2.955 -1.086,-4.975l9.091,-57.827c0.336,-2.155 0.69,-4.108 1.06,-5.859c0.438,-2.02 0.808,-4.023 1.111,-6.01c0.337,-1.986 1.246,-3.636 2.727,-4.949c1.482,-1.313 3.266,-1.97 5.354,-1.97c1.347,0 2.424,0.236 3.232,0.707c7.879,-1.313 14.528,-1.969 19.949,-1.969c4.007,-0 9.015,0.884 15.025,2.651c6.01,1.768 9.015,3.83 9.015,6.187c0,1.582 -0.816,3.232 -2.449,4.949c-1.633,1.718 -3.527,2.576 -5.682,2.576c-0.741,0 -1.566,-0.185 -2.475,-0.555c-4.175,-1.347 -9.377,-2.021 -15.605,-2.021c-3.637,0 -9.058,0.505 -16.263,1.516Z" style="fill:#6d4c41;fill-rule:nonzero;"/><path d="M272.241,25.543c-1.347,8.147 -2.542,14.797 -3.586,19.949c4.175,-0.337 10.859,-0.96 20.05,-1.869c6.498,-0.606 10.64,-0.909 12.424,-0.909c1.886,-0 3.384,0.522 4.495,1.566c1.111,1.043 1.667,2.424 1.667,4.141c-0,1.953 -0.632,3.703 -1.894,5.252c-1.263,1.549 -3.291,2.441 -6.086,2.677c-2.794,0.236 -7.121,0.648 -12.979,1.237c-5.859,0.59 -12.795,1.187 -20.808,1.793c-1.953,9.529 -2.929,15.976 -2.929,19.343c-0,1.179 0.134,1.97 0.404,2.374c0.269,0.404 2.323,0.606 6.161,0.606l3.939,0l15,-0.303c0.438,0 2.004,-0.168 4.697,-0.505c2.29,-0.303 4.141,0.067 5.556,1.111c1.414,1.044 2.121,2.525 2.121,4.444c-0,3.603 -1.44,5.985 -4.318,7.147c-2.879,1.161 -10.817,1.742 -23.813,1.742c-10.909,0 -17.609,-1.254 -20.101,-3.762c-2.491,-2.509 -3.737,-6.44 -3.737,-11.793c0,-5.724 1.683,-15.842 5.05,-30.353c3.031,-12.693 4.546,-21.178 4.546,-25.454c0.168,-3.603 0.463,-6.17 0.884,-7.702c0.42,-1.532 1.296,-2.803 2.626,-3.813c1.33,-1.01 3.055,-1.515 5.176,-1.515c1.516,-0 2.795,0.454 3.839,1.363c7.878,-2.02 15.084,-3.03 21.616,-3.03c5.185,0 10.412,0.547 15.681,1.642c5.269,1.094 7.904,3.207 7.904,6.338c-0,2.256 -0.817,4.217 -2.449,5.884c-1.633,1.666 -3.511,2.5 -5.632,2.5c-0.74,-0 -1.464,-0.101 -2.171,-0.304c-5.253,-1.447 -10.455,-2.171 -15.606,-2.171c-5.421,-0 -11.33,0.791 -17.727,2.374Z" style="fill:#6d4c41;fill-rule:nonzero;"/><path d="M308.856,84.127l3.536,-15.858c3.064,-13.872 6.06,-30.151 8.989,-48.837c0.27,-1.785 1.179,-3.384 2.728,-4.798c1.548,-1.414 3.35,-2.122 5.404,-2.122c1.784,0 3.232,0.539 4.343,1.617c1.111,1.077 1.667,2.474 1.667,4.191c-0,1.314 -0.859,6.701 -2.576,16.162l-3.99,21.514c-0.943,4.883 -2.811,13.35 -5.606,25.404c7.946,-0.101 18.485,-2.071 31.616,-5.909c0.841,-0.202 1.599,-0.303 2.272,-0.303c2.054,0 3.552,0.623 4.495,1.869c0.943,1.245 1.414,2.542 1.414,3.888c0,3.064 -1.456,5.396 -4.368,6.995c-2.913,1.6 -8.721,3.182 -17.424,4.748c-8.704,1.565 -16.018,2.348 -21.944,2.348c-7.172,0 -10.758,-2.761 -10.758,-8.283c0,-0.808 0.068,-1.683 0.202,-2.626Z" style="fill:#6d4c41;fill-rule:nonzero;"/><path d="M383.148,89.228c-0.303,1.919 -1.128,3.527 -2.475,4.823c-1.347,1.297 -2.996,1.945 -4.949,1.945c-2.222,-0 -3.897,-0.783 -5.025,-2.349c-1.128,-1.565 -1.692,-3.224 -1.692,-4.974c-0,-1.549 2.037,-13.216 6.111,-35c2.66,-13.905 4.646,-25.151 5.959,-33.736c0.371,-1.92 1.339,-3.553 2.904,-4.899c1.566,-1.347 3.359,-2.021 5.379,-2.021c1.717,0 3.148,0.548 4.293,1.642c1.144,1.094 1.717,2.5 1.717,4.217c-0,1.01 -0.354,3.148 -1.061,6.414l-3.99,19.192c1.078,-0.741 11.28,-10.084 30.606,-28.03c1.751,-1.751 3.67,-2.626 5.757,-2.626c1.718,-0 3.165,0.572 4.344,1.717c1.178,1.144 1.767,2.525 1.767,4.141c0,1.279 -0.917,3.039 -2.752,5.278c-1.835,2.239 -5.884,6.321 -12.146,12.247c-6.263,5.926 -13.434,12.205 -21.515,18.838c7.946,8.956 13.434,14.823 16.464,17.601c3.031,2.777 5.758,4.604 8.182,5.479c2.963,0.977 4.444,2.778 4.444,5.404c0,1.919 -0.749,3.754 -2.247,5.505c-1.498,1.751 -3.342,2.626 -5.53,2.626c-2.761,0 -6.221,-1.271 -10.379,-3.813c-4.158,-2.542 -11.035,-9.469 -20.631,-20.782l-3.535,21.161Z" style="fill:#6d4c41;fill-rule:nonzero;"/><path d="M432.894,66.501c0,-7.07 2.248,-14.907 6.743,-23.509c4.495,-8.603 10.563,-15.615 18.206,-21.035c7.643,-5.421 15.707,-8.131 24.192,-8.131c20.505,-0 30.757,8.232 30.757,24.696c-0,13.266 -4.697,25.74 -14.091,37.424c-9.394,11.683 -20.639,17.524 -33.737,17.524c-9.393,0 -17.087,-2.525 -23.08,-7.575c-5.993,-5.051 -8.99,-11.515 -8.99,-19.394Zm14.546,-2.474c-0,4.579 1.851,8.341 5.555,11.287c3.704,2.946 8.417,4.419 14.141,4.419c8.249,0 15.497,-4.292 21.742,-12.878c6.246,-8.586 9.369,-17.39 9.369,-26.414c-0,-4.646 -1.381,-7.946 -4.142,-9.899c-2.761,-1.952 -7.508,-2.929 -14.242,-2.929c-5.454,0 -10.707,1.953 -15.757,5.859c-5.05,3.905 -9.091,8.897 -12.121,14.974c-3.03,6.077 -4.545,11.271 -4.545,15.581Z" style="fill:#6d4c41;fill-rule:nonzero;"/><path d="M542.589,45.29c-1.077,2.424 -3.535,8.964 -7.373,19.62c-3.839,10.657 -6.313,17.87 -7.424,21.641c-2.088,4.781 -5.017,7.172 -8.788,7.172c-1.751,0 -3.14,-0.547 -4.167,-1.641c-1.027,-1.095 -1.54,-2.483 -1.54,-4.167c-0,-4.276 2.273,-11.38 6.818,-21.313c2.66,-5.858 4.629,-10.42 5.909,-13.686l8.182,-22.222c2.727,-7.34 5.117,-12.02 7.171,-14.04c2.054,-2.02 4.31,-3.03 6.768,-3.03c3.333,-0 5.404,1.683 6.212,5.05c0.808,3.367 1.296,11.683 1.464,24.949c0.135,11.044 0.623,19.427 1.465,25.151c4.747,-8.889 10.219,-21.229 16.414,-37.019l4.646,-11.616c1.919,-4.815 5.135,-7.223 9.646,-7.223c2.088,0 3.771,1.095 5.051,3.283c1.279,2.189 1.919,6.684 1.919,13.485l-0.101,11.969c-0.034,4.344 0.101,9.099 0.404,14.268c0.303,5.168 0.774,10.143 1.414,14.924c1.28,9.326 1.919,14.831 1.919,16.514c0,1.718 -0.875,3.359 -2.626,4.925c-1.751,1.565 -3.72,2.348 -5.909,2.348c-3.704,0 -6.01,-2.66 -6.919,-7.98l-0.859,-12.171c-0.134,-2.02 -0.235,-12.441 -0.303,-31.262c-0.572,1.111 -1.262,2.66 -2.07,4.646c-4.31,10.37 -7.542,17.609 -9.697,21.717l-4.899,9.343c-2.862,5.455 -5.134,9.108 -6.818,10.96c-1.683,1.852 -3.788,2.777 -6.313,2.777c-2.862,0 -4.832,-1.868 -5.909,-5.606l-1.313,-9.393c-0.707,-5.152 -1.498,-15.943 -2.374,-32.373Z" style="fill:#6d4c41;fill-rule:nonzero;"/><path d="M654.153,68.774c-2.559,0.337 -6.7,0.707 -12.424,1.111c-5.657,0.337 -9.798,0.758 -12.424,1.263c-6.094,10.1 -9.941,16.026 -11.54,17.777c-1.6,1.751 -3.578,2.626 -5.935,2.626c-1.818,0 -3.325,-0.555 -4.52,-1.666c-1.195,-1.111 -1.793,-2.458 -1.793,-4.041c0,-1.784 3.451,-7.962 10.354,-18.535c-0.202,-0.505 -0.303,-0.959 -0.303,-1.363c-0,-2.492 1.868,-4.276 5.606,-5.354c22.625,-29.932 35.521,-44.898 38.686,-44.898c3.602,0 5.74,2.239 6.414,6.717c-0,6.263 0.421,15.96 1.262,29.091c0.842,13.131 1.431,20.437 1.768,21.918c0.337,1.482 0.774,3.216 1.313,5.202c0.572,2.323 0.859,4.158 0.859,5.505c-0,2.054 -0.867,3.872 -2.601,5.455c-1.734,1.582 -3.679,2.373 -5.834,2.373c-4.208,0 -7.171,-7.727 -8.888,-23.181Zm-1.768,-28.636c-4.478,6.128 -9.057,12.256 -13.737,18.384c1.717,-0.337 4.158,-0.606 7.323,-0.808c3.704,-0.202 6.044,-0.371 7.02,-0.505c0,-4.445 -0.202,-10.135 -0.606,-17.071Z" style="fill:#6d4c41;fill-rule:nonzero;"/><path d="M726.778,28.522l-2.374,23.636c-0.808,8.215 -1.498,14.124 -2.071,17.727c-0.168,0.774 -0.336,2.458 -0.505,5.05c-0.404,6.33 -1.641,10.556 -3.712,12.677c-2.07,2.121 -4.049,3.182 -5.934,3.182c-1.852,-0 -3.359,-0.573 -4.52,-1.717c-1.162,-1.145 -1.743,-2.509 -1.743,-4.091c0,-0.573 0.219,-1.599 0.657,-3.081c0.505,-1.683 0.833,-3.544 0.985,-5.581c0.151,-2.037 0.732,-8.038 1.742,-18.004l2.98,-28.939l-5.404,0.202c-6.128,0.236 -10.985,-0.042 -14.57,-0.833c-3.586,-0.792 -5.379,-2.551 -5.379,-5.278c-0,-2.189 0.766,-4.15 2.298,-5.884c1.532,-1.734 3.527,-2.601 5.985,-2.601l14.292,0.909c2.525,0 6.785,-0.185 12.778,-0.555c5.959,-0.371 10.033,-0.556 12.222,-0.556l15.858,0.303c2.66,0 4.377,0.067 5.151,0.202c0.775,0.135 1.6,0.665 2.475,1.591c0.876,0.926 1.313,2.13 1.313,3.611c0,2.121 -0.841,4.024 -2.525,5.707c-1.683,1.684 -3.518,2.525 -5.505,2.525l-21.717,-0.202l-2.777,0Z" style="fill:#6d4c41;fill-rule:nonzero;"/></svg>